<?xml version="1.0" standalone="no"?><!DOCTYPE svg PUBLIC "-//W3C//DTD SVG 1.1//EN" "http://www.w3.org/Graphics/SVG/1.1/DTD/svg11.dtd"><svg t="1726039790894" class="icon" viewBox="0 0 1024 1024" version="1.1" xmlns="http://www.w3.org/2000/svg" p-id="5020" xmlns:xlink="http://www.w3.org/1999/xlink" width="200" height="200"><path d="M788.266667 373.248a32 32 0 1 0 44.8-45.738667l-99.413334-97.28c-14.165333-13.866667-27.136-26.581333-38.4-34.858666-10.666667-7.893333-30.72-20.053333-54.101333-10.581334-23.68 9.6-29.269333 32.64-31.146667 45.824-2.005333 13.738667-2.005333 31.786667-2.005333 51.285334V810.666667a32 32 0 0 0 64 0V284.16c0-9.728 0-17.749333 0.128-24.405333 5.034667 4.736 11.008 10.581333 18.346667 17.749333l97.792 95.744zM352 739.968c0 9.728 0 17.749333-0.128 24.362667a1442.986667 1442.986667 0 0 1-18.346667-17.706667l-97.792-95.786667a32 32 0 1 0-44.8 45.738667l97.834667 95.786667 1.621333 1.536c14.08 13.824 27.093333 26.538667 38.314667 34.816 10.752 7.936 30.805333 20.053333 54.186667 10.624 23.637333-9.642667 29.226667-32.64 31.146666-45.866667 1.962667-13.696 1.962667-31.744 1.962667-51.242667V213.333333a32 32 0 0 0-64 0v526.592z" p-id="5021"></path></svg>