<?xml version="1.0" standalone="no"?><!DOCTYPE svg PUBLIC "-//W3C//DTD SVG 1.1//EN" "http://www.w3.org/Graphics/SVG/1.1/DTD/svg11.dtd"><svg t="1726038936165" class="icon" viewBox="0 0 1024 1024" version="1.1" xmlns="http://www.w3.org/2000/svg" p-id="9246" xmlns:xlink="http://www.w3.org/1999/xlink" width="200" height="200"><path d="M256 917.333333v-85.333333h106.666667v-106.666667H149.333333a85.333333 85.333333 0 0 1-85.226666-81.066666L64 640V213.333333a85.333333 85.333333 0 0 1 81.066667-85.226666L149.333333 128h725.333334a85.333333 85.333333 0 0 1 85.226666 81.066667L960 213.333333v164.010667h-85.333333V213.333333H149.333333v426.666667h409.450667v85.333333H448v106.666667h320v85.333333H256z" fill="#333333" p-id="9247"></path><path d="M896 430.336L956.330667 490.666667l-106.666667 106.666666 106.666667 106.666667L896 764.330667l-106.666667-106.666667-106.666666 106.666667L622.336 704l106.666667-106.666667-106.666667-106.666666L682.666667 430.336l106.666666 106.666667 106.666667-106.666667z" fill="#DA444A" p-id="9248"></path></svg>